<mxfile host="app.diagrams.net" modified="2023-02-12T04:32:07.719Z" agent="5.0 (Windows NT 10.0; Win64; x64) AppleWebKit/537.36 (KHTML, like Gecko) Chrome/97.0.4692.71 Safari/537.36" etag="EH8SkCYRdDuAuml_Pfy-" version="20.8.20" type="github">
  <diagram name="第 1 页" id="-vVGlVaRa7v5_yqT3xm0">
    <mxGraphModel dx="1050" dy="548" grid="1" gridSize="10" guides="1" tooltips="1" connect="1" arrows="1" fold="1" page="1" pageScale="1" pageWidth="827" pageHeight="1169" math="0" shadow="0">
      <root>
        <mxCell id="0" />
        <mxCell id="1" parent="0" />
        <mxCell id="7aVtJjAwTDG5K609VlN--3" value="" style="rounded=1;whiteSpace=wrap;html=1;strokeColor=#56517e;fontFamily=Helvetica;fontSize=12;fillColor=#d0cee2;fillOpacity=100;comic=1;" vertex="1" parent="1">
          <mxGeometry x="125" y="90" width="330" height="110" as="geometry" />
        </mxCell>
        <mxCell id="7aVtJjAwTDG5K609VlN--1" value="&lt;font face=&quot;Comic Sans MS&quot; style=&quot;font-size: 16px;&quot;&gt;用户缓冲区&lt;/font&gt;" style="rounded=1;whiteSpace=wrap;html=1;fillColor=#f5f5f5;fontColor=#333333;strokeColor=#666666;arcSize=12;sketch=1;curveFitting=1;jiggle=2;" vertex="1" parent="1">
          <mxGeometry x="215" y="115" width="120" height="60" as="geometry" />
        </mxCell>
        <mxCell id="7aVtJjAwTDG5K609VlN--4" value="&lt;font face=&quot;Comic Sans MS&quot; style=&quot;font-size: 16px;&quot;&gt;&lt;b&gt;进程&lt;/b&gt;&lt;/font&gt;" style="text;html=1;align=center;verticalAlign=middle;resizable=0;points=[];autosize=1;strokeColor=none;fillColor=none;fontSize=12;fontFamily=Helvetica;fontColor=#333333;" vertex="1" parent="1">
          <mxGeometry x="135" y="130" width="60" height="30" as="geometry" />
        </mxCell>
        <mxCell id="7aVtJjAwTDG5K609VlN--5" value="&lt;font face=&quot;Comic Sans MS&quot; style=&quot;font-size: 16px;&quot;&gt;&lt;b&gt;用户态&lt;/b&gt;&lt;/font&gt;" style="text;html=1;align=center;verticalAlign=middle;resizable=0;points=[];autosize=1;strokeColor=none;fillColor=none;fontSize=12;fontFamily=Helvetica;fontColor=#333333;" vertex="1" parent="1">
          <mxGeometry x="10" y="130" width="70" height="30" as="geometry" />
        </mxCell>
        <mxCell id="7aVtJjAwTDG5K609VlN--18" style="edgeStyle=orthogonalEdgeStyle;rounded=0;orthogonalLoop=1;jettySize=auto;html=1;exitX=1;exitY=0.75;exitDx=0;exitDy=0;entryX=0.5;entryY=0;entryDx=0;entryDy=0;fontFamily=Comic Sans MS;fontSize=14;fontColor=#333333;curved=1;" edge="1" parent="1" source="7aVtJjAwTDG5K609VlN--6" target="7aVtJjAwTDG5K609VlN--9">
          <mxGeometry relative="1" as="geometry">
            <Array as="points">
              <mxPoint x="248" y="310" />
              <mxPoint x="423" y="310" />
            </Array>
          </mxGeometry>
        </mxCell>
        <mxCell id="7aVtJjAwTDG5K609VlN--19" style="edgeStyle=orthogonalEdgeStyle;curved=1;rounded=0;orthogonalLoop=1;jettySize=auto;html=1;exitX=1;exitY=0.5;exitDx=0;exitDy=0;entryX=0;entryY=0.5;entryDx=0;entryDy=0;fontFamily=Comic Sans MS;fontSize=14;fontColor=#333333;dashed=1;" edge="1" parent="1" source="7aVtJjAwTDG5K609VlN--6" target="7aVtJjAwTDG5K609VlN--7">
          <mxGeometry relative="1" as="geometry" />
        </mxCell>
        <mxCell id="7aVtJjAwTDG5K609VlN--26" style="edgeStyle=none;rounded=0;orthogonalLoop=1;jettySize=auto;html=1;exitX=0.5;exitY=0;exitDx=0;exitDy=0;entryX=0.121;entryY=1;entryDx=0;entryDy=0;entryPerimeter=0;dashed=1;fontFamily=Comic Sans MS;fontSize=14;fontColor=#333333;startArrow=classic;startFill=1;endArrow=none;endFill=0;" edge="1" parent="1" source="7aVtJjAwTDG5K609VlN--6" target="7aVtJjAwTDG5K609VlN--3">
          <mxGeometry relative="1" as="geometry" />
        </mxCell>
        <mxCell id="7aVtJjAwTDG5K609VlN--6" value="&lt;font style=&quot;font-size: 16px;&quot; face=&quot;Comic Sans MS&quot;&gt;缓存区&lt;/font&gt;" style="rounded=1;whiteSpace=wrap;html=1;strokeColor=#9673a6;fontFamily=Helvetica;fontSize=12;fillColor=#e1d5e7;fillOpacity=100;gradientColor=none;comic=1;" vertex="1" parent="1">
          <mxGeometry x="82.5" y="240" width="165" height="60" as="geometry" />
        </mxCell>
        <mxCell id="7aVtJjAwTDG5K609VlN--27" style="edgeStyle=none;rounded=0;orthogonalLoop=1;jettySize=auto;html=1;exitX=0.5;exitY=0;exitDx=0;exitDy=0;entryX=0.902;entryY=0.996;entryDx=0;entryDy=0;entryPerimeter=0;dashed=1;fontFamily=Comic Sans MS;fontSize=14;fontColor=#333333;" edge="1" parent="1" source="7aVtJjAwTDG5K609VlN--7" target="7aVtJjAwTDG5K609VlN--3">
          <mxGeometry relative="1" as="geometry" />
        </mxCell>
        <mxCell id="7aVtJjAwTDG5K609VlN--7" value="&lt;font style=&quot;font-size: 16px;&quot; face=&quot;Comic Sans MS&quot;&gt;socket缓冲区&lt;/font&gt;" style="rounded=1;whiteSpace=wrap;html=1;strokeColor=#9673a6;fontFamily=Helvetica;fontSize=12;fillColor=#e1d5e7;fillOpacity=100;gradientColor=none;comic=1;" vertex="1" parent="1">
          <mxGeometry x="340" y="240" width="165" height="60" as="geometry" />
        </mxCell>
        <mxCell id="7aVtJjAwTDG5K609VlN--16" style="edgeStyle=orthogonalEdgeStyle;rounded=0;orthogonalLoop=1;jettySize=auto;html=1;exitX=0.5;exitY=0;exitDx=0;exitDy=0;entryX=0.5;entryY=1;entryDx=0;entryDy=0;fontFamily=Comic Sans MS;fontSize=14;fontColor=#333333;" edge="1" parent="1" source="7aVtJjAwTDG5K609VlN--8" target="7aVtJjAwTDG5K609VlN--6">
          <mxGeometry relative="1" as="geometry" />
        </mxCell>
        <mxCell id="7aVtJjAwTDG5K609VlN--8" value="&lt;font style=&quot;font-size: 16px;&quot; face=&quot;Comic Sans MS&quot;&gt;磁盘文件&lt;/font&gt;" style="rounded=1;whiteSpace=wrap;html=1;strokeColor=#9673a6;fontFamily=Helvetica;fontSize=12;fillColor=#e1d5e7;fillOpacity=100;gradientColor=none;comic=1;" vertex="1" parent="1">
          <mxGeometry x="82.5" y="370" width="165" height="60" as="geometry" />
        </mxCell>
        <mxCell id="7aVtJjAwTDG5K609VlN--9" value="&lt;font style=&quot;font-size: 16px;&quot; face=&quot;Comic Sans MS&quot;&gt;网卡&lt;/font&gt;" style="rounded=1;whiteSpace=wrap;html=1;strokeColor=#9673a6;fontFamily=Helvetica;fontSize=12;fillColor=#e1d5e7;fillOpacity=100;gradientColor=none;comic=1;" vertex="1" parent="1">
          <mxGeometry x="340" y="370" width="165" height="60" as="geometry" />
        </mxCell>
        <mxCell id="7aVtJjAwTDG5K609VlN--11" value="" style="endArrow=none;html=1;rounded=0;fontFamily=Comic Sans MS;fontSize=16;fontColor=#333333;" edge="1" parent="1">
          <mxGeometry width="50" height="50" relative="1" as="geometry">
            <mxPoint x="40" y="220" as="sourcePoint" />
            <mxPoint x="560" y="220" as="targetPoint" />
          </mxGeometry>
        </mxCell>
        <mxCell id="7aVtJjAwTDG5K609VlN--23" value="&lt;font style=&quot;font-size: 14px;&quot;&gt;sendfile切换1&lt;/font&gt;" style="edgeLabel;html=1;align=center;verticalAlign=middle;resizable=0;points=[];fontSize=11;fontFamily=Comic Sans MS;fontColor=#333333;" vertex="1" connectable="0" parent="7aVtJjAwTDG5K609VlN--11">
          <mxGeometry x="-0.5246" y="1" relative="1" as="geometry">
            <mxPoint as="offset" />
          </mxGeometry>
        </mxCell>
        <mxCell id="7aVtJjAwTDG5K609VlN--24" value="切换2" style="edgeLabel;html=1;align=center;verticalAlign=middle;resizable=0;points=[];fontSize=14;fontFamily=Comic Sans MS;fontColor=#333333;" vertex="1" connectable="0" parent="7aVtJjAwTDG5K609VlN--11">
          <mxGeometry x="0.4908" relative="1" as="geometry">
            <mxPoint x="-8" as="offset" />
          </mxGeometry>
        </mxCell>
        <mxCell id="7aVtJjAwTDG5K609VlN--12" value="" style="endArrow=none;html=1;rounded=0;fontFamily=Comic Sans MS;fontSize=16;fontColor=#333333;" edge="1" parent="1">
          <mxGeometry width="50" height="50" relative="1" as="geometry">
            <mxPoint x="40" y="340" as="sourcePoint" />
            <mxPoint x="560" y="340" as="targetPoint" />
          </mxGeometry>
        </mxCell>
        <mxCell id="7aVtJjAwTDG5K609VlN--13" value="1&lt;font style=&quot;font-size: 14px;&quot;&gt;DMA拷贝&lt;/font&gt;" style="edgeLabel;html=1;align=center;verticalAlign=middle;resizable=0;points=[];fontSize=16;fontFamily=Comic Sans MS;fontColor=#333333;" vertex="1" connectable="0" parent="7aVtJjAwTDG5K609VlN--12">
          <mxGeometry x="-0.5977" y="1" relative="1" as="geometry">
            <mxPoint x="15" as="offset" />
          </mxGeometry>
        </mxCell>
        <mxCell id="7aVtJjAwTDG5K609VlN--14" value="&lt;font style=&quot;font-size: 14px;&quot;&gt;2SG-DMA拷贝&lt;/font&gt;" style="edgeLabel;html=1;align=center;verticalAlign=middle;resizable=0;points=[];fontSize=14;fontFamily=Comic Sans MS;fontColor=#333333;" vertex="1" connectable="0" parent="7aVtJjAwTDG5K609VlN--12">
          <mxGeometry x="0.4446" y="2" relative="1" as="geometry">
            <mxPoint as="offset" />
          </mxGeometry>
        </mxCell>
        <mxCell id="7aVtJjAwTDG5K609VlN--20" value="描述符和数据长度" style="text;html=1;align=center;verticalAlign=middle;resizable=0;points=[];autosize=1;strokeColor=none;fillColor=none;fontSize=11;fontFamily=Comic Sans MS;fontColor=#333333;" vertex="1" parent="1">
          <mxGeometry x="230" y="230" width="120" height="30" as="geometry" />
        </mxCell>
        <mxCell id="7aVtJjAwTDG5K609VlN--29" value="&lt;font face=&quot;Comic Sans MS&quot; style=&quot;font-size: 16px;&quot;&gt;&lt;b&gt;内核态&lt;/b&gt;&lt;/font&gt;" style="text;html=1;align=center;verticalAlign=middle;resizable=0;points=[];autosize=1;strokeColor=none;fillColor=none;fontSize=12;fontFamily=Helvetica;fontColor=#333333;" vertex="1" parent="1">
          <mxGeometry x="10" y="260" width="70" height="30" as="geometry" />
        </mxCell>
      </root>
    </mxGraphModel>
  </diagram>
</mxfile>
